<?xml version="1.0" encoding="UTF-8" standalone="no"?> <svg width="512" height="512" viewBox="0 0 512 512" fill="none" xmlns="http://www.w3.org/2000/svg">
<path fill-rule="evenodd" clip-rule="evenodd" d="M128 32C74.9807 32 32 74.9807 32 128V384C32 437.019 74.9807 480 128 480H384C437.019 480 480 437.019 480 384V128C480 74.9807 437.019 32 384 32H128ZM340 384V173.852L285.184 249.751C270.815 269.647 241.185 269.647 226.816 249.751L172 173.852V384C172 395.046 163.046 404 152 404C140.954 404 132 395.046 132 384V136.741C132 109.576 166.794 98.3255 182.699 120.347L256 221.841L329.301 120.347C345.206 98.3254 380 109.576 380 136.741V384C380 395.046 371.046 404 360 404C348.954 404 340 395.046 340 384Z" fill="white"/>
</svg>
